<?xml version="1.0" encoding="UTF-8"?>
<svg width="800" height="600" viewBox="0 0 800 600" fill="none" xmlns="http://www.w3.org/2000/svg">
  <!-- Background Elements -->
  <rect width="800" height="600" fill="#F8FAFC" />
  <circle cx="400" cy="300" r="250" fill="#F1F5F9" />
  
  <!-- Calendar Grid -->
  <rect x="250" y="150" width="300" height="300" rx="16" fill="white" stroke="#E2E8F0" stroke-width="2"/>
  <line x1="250" y1="200" x2="550" y2="200" stroke="#E2E8F0" stroke-width="2"/>
  <line x1="250" y1="250" x2="550" y2="250" stroke="#E2E8F0" stroke-width="2"/>
  <line x1="250" y1="300" x2="550" y2="300" stroke="#E2E8F0" stroke-width="2"/>
  <line x1="250" y1="350" x2="550" y2="350" stroke="#E2E8F0" stroke-width="2"/>
  <line x1="250" y1="400" x2="550" y2="400" stroke="#E2E8F0" stroke-width="2"/>
  
  <!-- Vertical Lines -->
  <line x1="300" y1="200" x2="300" y2="450" stroke="#E2E8F0" stroke-width="2"/>
  <line x1="350" y1="200" x2="350" y2="450" stroke="#E2E8F0" stroke-width="2"/>
  <line x1="400" y1="200" x2="400" y2="450" stroke="#E2E8F0" stroke-width="2"/>
  <line x1="450" y1="200" x2="450" y2="450" stroke="#E2E8F0" stroke-width="2"/>
  <line x1="500" y1="200" x2="500" y2="450" stroke="#E2E8F0" stroke-width="2"/>
  
  <!-- Highlighted Events -->
  <rect x="310" y="260" width="80" height="30" rx="4" fill="#3B82F6" fill-opacity="0.2"/>
  <rect x="410" y="310" width="80" height="30" rx="4" fill="#3B82F6" fill-opacity="0.2"/>
  <rect x="260" y="360" width="80" height="30" rx="4" fill="#3B82F6" fill-opacity="0.2"/>
  
  <!-- Calendar Header -->
  <text x="270" y="180" fill="#1E293B" font-family="Arial" font-size="16" font-weight="bold">Timetable</text>
  
  <!-- Decorative Elements -->
  <circle cx="600" cy="150" r="30" fill="#3B82F6" fill-opacity="0.1"/>
  <circle cx="200" cy="450" r="40" fill="#3B82F6" fill-opacity="0.1"/>
  <circle cx="650" cy="400" r="25" fill="#3B82F6" fill-opacity="0.1"/>
</svg>