<svg width="800" height="600" viewBox="0 0 800 600" fill="none" xmlns="http://www.w3.org/2000/svg">
  <rect width="800" height="600" fill="white"/>
  <g filter="url(#filter0_d)">
    <rect x="100" y="100" width="600" height="400" rx="20" fill="white"/>
    <rect x="100.5" y="100.5" width="599" height="399" rx="19.5" stroke="#E2E8F0"/>
  </g>
  <rect x="120" y="120" width="560" height="80" rx="8" fill="#F8FAFC"/>
  <rect x="140" y="150" width="200" height="20" rx="4" fill="#0C87EB"/>
  <rect x="360" y="150" width="100" height="20" rx="4" fill="#09DC8B"/>
  <rect x="480" y="150" width="100" height="20" rx="4" fill="#6B7897"/>
  <rect x="120" y="220" width="560" height="80" rx="8" fill="#F8FAFC"/>
  <rect x="140" y="250" width="150" height="20" rx="4" fill="#0C87EB"/>
  <rect x="310" y="250" width="150" height="20" rx="4" fill="#09DC8B"/>
  <rect x="480" y="250" width="100" height="20" rx="4" fill="#6B7897"/>
  <rect x="120" y="320" width="560" height="80" rx="8" fill="#F8FAFC"/>
  <rect x="140" y="350" width="180" height="20" rx="4" fill="#0C87EB"/>
  <rect x="340" y="350" width="120" height="20" rx="4" fill="#09DC8B"/>
  <rect x="480" y="350" width="100" height="20" rx="4" fill="#6B7897"/>
  <rect x="120" y="420" width="560" height="60" rx="8" fill="#F8FAFC"/>
  <rect x="140" y="440" width="160" height="20" rx="4" fill="#0C87EB"/>
  <rect x="320" y="440" width="140" height="20" rx="4" fill="#09DC8B"/>
  <rect x="480" y="440" width="100" height="20" rx="4" fill="#6B7897"/>
  <defs>
    <filter id="filter0_d" x="96" y="98" width="608" height="408" filterUnits="userSpaceOnUse" color-interpolation-filters="sRGB">
      <feFlood flood-opacity="0" result="BackgroundImageFix"/>
      <feColorMatrix in="SourceAlpha" type="matrix" values="0 0 0 0 0 0 0 0 0 0 0 0 0 0 0 0 0 0 127 0"/>
      <feOffset dy="2"/>
      <feGaussianBlur stdDeviation="2"/>
      <feColorMatrix type="matrix" values="0 0 0 0 0 0 0 0 0 0 0 0 0 0 0 0 0 0 0.05 0"/>
      <feBlend mode="normal" in2="BackgroundImageFix" result="effect1_dropShadow"/>
      <feBlend mode="normal" in="SourceGraphic" in2="effect1_dropShadow" result="shape"/>
    </filter>
  </defs>
</svg> 